<svg width="21" height="17" viewBox="0 0 21 17" fill="none" xmlns="http://www.w3.org/2000/svg">
<path d="M3.5 13.4583V12.0416H5.25V7.08329C5.25 6.10343 5.61458 5.23572 6.34375 4.48017C7.07292 3.71281 8.02083 3.21107 9.1875 2.97496V2.47913C9.1875 2.18399 9.31146 1.93607 9.55938 1.73538C9.82188 1.52288 10.1354 1.41663 10.5 1.41663C10.8646 1.41663 11.1708 1.52288 11.4188 1.73538C11.6813 1.93607 11.8125 2.18399 11.8125 2.47913V2.97496C12.9792 3.21107 13.9271 3.71281 14.6562 4.48017C15.3854 5.23572 15.75 6.10343 15.75 7.08329V12.0416H17.5V13.4583H3.5ZM10.5 15.5833C10.0188 15.5833 9.60313 15.4475 9.25313 15.176C8.91771 14.8927 8.75 14.5562 8.75 14.1666H12.25C12.25 14.5562 12.075 14.8927 11.725 15.176C11.3896 15.4475 10.9813 15.5833 10.5 15.5833ZM7 12.0416H14V7.08329C14 6.30413 13.6573 5.63711 12.9719 5.08225C12.2865 4.52739 11.4625 4.24996 10.5 4.24996C9.5375 4.24996 8.71354 4.52739 8.02813 5.08225C7.34271 5.63711 7 6.30413 7 7.08329V12.0416Z" fill="white"/>
</svg>
