<svg width="522" height="38" viewBox="0 0 522 38" fill="none" xmlns="http://www.w3.org/2000/svg">
<path d="M0 5C0 2.23858 2.23858 0 5 0H517C519.761 0 522 2.23858 522 5V33C522 35.7614 519.761 38 517 38H4.99999C2.23857 38 0 35.7614 0 33V5Z" fill="white" fill-opacity="0.1"/>
<path d="M5 0.25H517C519.623 0.25 521.75 2.37665 521.75 5V33C521.75 35.6234 519.623 37.75 517 37.75H5C2.37665 37.75 0.25 35.6234 0.25 33V5C0.25 2.37665 2.37665 0.25 5 0.25Z" stroke="black" stroke-opacity="0.63" stroke-width="0.5"/>
</svg>
