<svg width="15" height="15" viewBox="0 0 15 15" fill="none" xmlns="http://www.w3.org/2000/svg">
<path d="M13.75 7.5C13.75 10.9519 10.9519 13.75 7.5 13.75C4.04813 13.75 1.25 10.9519 1.25 7.5C1.25 4.04813 4.04813 1.25 7.5 1.25V2.5C6.32423 2.50009 5.18609 2.91454 4.28557 3.67052C3.38505 4.4265 2.77975 5.47565 2.57602 6.63364C2.37229 7.79163 2.58317 8.98438 3.1716 10.0023C3.76003 11.0202 4.68837 11.7983 5.79351 12.1996C6.89866 12.601 8.1099 12.6001 9.21443 12.197C10.319 11.794 11.2461 11.0145 11.833 9.99571C12.4199 8.97688 12.6289 7.78382 12.4234 6.62614C12.2179 5.46846 11.611 4.42023 10.7094 3.66562L9.375 5V1.25H13.125L11.5956 2.77938C12.2725 3.36549 12.8153 4.09047 13.187 4.90503C13.5587 5.71958 13.7508 6.60463 13.75 7.5Z" fill="black"/>
</svg>
