<svg width="22" height="26" viewBox="0 0 22 26" fill="none" xmlns="http://www.w3.org/2000/svg">
<path d="M1.66746 21.0661C1.66746 21.5783 2.08126 21.9921 2.59344 21.9921H19.2032C19.7154 21.9921 20.1292 21.5783 20.1292 21.0661V14.3238C20.1292 9.22509 15.997 5.0929 10.8983 5.0929C5.79966 5.0929 1.66746 9.22509 1.66746 14.3238V21.0661ZM3.75092 14.3238C3.75092 10.3768 6.95134 7.17636 10.8983 7.17636C14.8453 7.17636 18.0458 10.3768 18.0458 14.3238V19.9086H7.77315V14.9604C7.77315 14.8012 7.64294 14.671 7.48378 14.671H6.21056C6.05141 14.671 5.92119 14.8012 5.92119 14.9604V19.9086H3.75092V14.3238ZM2.35905 7.01721L3.50496 5.8713C3.59466 5.7816 3.59466 5.63402 3.50496 5.54432L1.54014 3.5795C1.49663 3.53642 1.43788 3.51225 1.37665 3.51225C1.31542 3.51225 1.25666 3.53642 1.21315 3.5795L0.0672496 4.7254C0.0241676 4.76891 0 4.82766 0 4.88889C0 4.95012 0.0241676 5.00888 0.0672496 5.05239L2.03207 7.01721C2.12177 7.10691 2.26646 7.10691 2.35905 7.01721ZM21.7352 4.7254L20.5893 3.5795C20.5458 3.53642 20.4871 3.51225 20.4258 3.51225C20.3646 3.51225 20.3058 3.53642 20.2623 3.5795L18.2975 5.54432C18.2544 5.58782 18.2303 5.64658 18.2303 5.70781C18.2303 5.76904 18.2544 5.82779 18.2975 5.8713L19.4434 7.01721C19.5331 7.10691 19.6807 7.10691 19.7704 7.01721L21.7352 5.05239C21.8249 4.95979 21.8249 4.8151 21.7352 4.7254ZM20.1582 23.844H1.63852C1.12634 23.844 0.712543 24.2578 0.712543 24.77V25.4645C0.712543 25.5918 0.816716 25.696 0.944039 25.696H20.8526C20.98 25.696 21.0841 25.5918 21.0841 25.4645V24.77C21.0841 24.2578 20.6703 23.844 20.1582 23.844ZM10.0881 3.24094H11.7086C11.8359 3.24094 11.9401 3.13676 11.9401 3.00944V0.231495C11.9401 0.104173 11.8359 0 11.7086 0H10.0881C9.96078 0 9.85661 0.104173 9.85661 0.231495V3.00944C9.85661 3.13676 9.96078 3.24094 10.0881 3.24094Z" fill="#0B1739"/>
</svg>
