<svg width="14" height="9" viewBox="0 0 14 9" fill="none" xmlns="http://www.w3.org/2000/svg">
<path fill-rule="evenodd" clip-rule="evenodd" d="M13.4712 4.5C13.4712 4.23075 13.3222 4.0545 13.0242 3.7005C11.9336 2.4075 9.52817 0 6.73561 0C3.94306 0 1.53759 2.4075 0.446993 3.7005C0.148998 4.0545 0 4.23075 0 4.5C0 4.76925 0.148998 4.9455 0.446993 5.2995C1.53759 6.5925 3.94306 9 6.73561 9C9.52817 9 11.9336 6.5925 13.0242 5.2995C13.3222 4.9455 13.4712 4.76925 13.4712 4.5ZM6.73561 6.75C7.34669 6.75 7.93275 6.51295 8.36485 6.09099C8.79695 5.66903 9.0397 5.09674 9.0397 4.5C9.0397 3.90326 8.79695 3.33097 8.36485 2.90901C7.93275 2.48705 7.34669 2.25 6.73561 2.25C6.12453 2.25 5.53848 2.48705 5.10638 2.90901C4.67428 3.33097 4.43153 3.90326 4.43153 4.5C4.43153 5.09674 4.67428 5.66903 5.10638 6.09099C5.53848 6.51295 6.12453 6.75 6.73561 6.75Z" fill="black"/>
</svg>
