<svg width="17" height="15" viewBox="0 0 17 15" fill="none" xmlns="http://www.w3.org/2000/svg">
<path d="M5.86542 14.6605L5.54403 12.3148C5.36994 12.2537 5.20603 12.1804 5.0523 12.0949C4.89857 12.0094 4.74778 11.9178 4.59994 11.82L2.20958 12.7363L0 9.25444L2.06897 7.82504C2.05558 7.73952 2.04888 7.65718 2.04888 7.57801V7.08322C2.04888 7.00356 2.05558 6.92097 2.06897 6.83545L0 5.40606L2.20958 1.92419L4.59994 2.84047C4.74724 2.74273 4.90124 2.65111 5.06194 2.56559C5.22264 2.48007 5.38333 2.40676 5.54403 2.34568L5.86542 0H10.2846L10.606 2.34568C10.7801 2.40676 10.9442 2.48007 11.0985 2.56559C11.2528 2.65111 11.4033 2.74273 11.5501 2.84047L13.9404 1.92419L16.15 5.40606L14.081 6.83545C14.0944 6.92097 14.1011 7.00356 14.1011 7.08322V7.57728C14.1011 7.65693 14.0877 7.73952 14.0609 7.82504L16.1299 9.25444L13.9203 12.7363L11.5501 11.82C11.4028 11.9178 11.2488 12.0094 11.0881 12.0949C10.9274 12.1804 10.7667 12.2537 10.606 12.3148L10.2846 14.6605H5.86542ZM8.11518 9.89583C8.89188 9.89583 9.55475 9.64538 10.1038 9.14448C10.6528 8.64358 10.9274 8.03884 10.9274 7.33025C10.9274 6.62166 10.6528 6.01691 10.1038 5.51601C9.55475 5.01511 8.89188 4.76466 8.11518 4.76466C7.32508 4.76466 6.65873 5.01511 6.11611 5.51601C5.57349 6.01691 5.30245 6.62166 5.30299 7.33025C5.30352 8.03884 5.57483 8.64358 6.11691 9.14448C6.659 9.64538 7.32508 9.89583 8.11518 9.89583Z" fill="#0B1739"/>
</svg>
