<svg width="22" height="16" viewBox="0 0 22 16" fill="none" xmlns="http://www.w3.org/2000/svg">
<path d="M8.47875 2.4225C8.47875 1.78001 8.73398 1.16384 9.18828 0.709534C9.64259 0.255227 10.2588 0 10.9012 0C11.5437 0 12.1599 0.255227 12.6142 0.709534C13.0685 1.16384 13.3237 1.78001 13.3237 2.4225C13.3237 3.06499 13.0685 3.68116 12.6142 4.13547C12.1599 4.58977 11.5437 4.845 10.9012 4.845C10.2588 4.845 9.64259 4.58977 9.18828 4.13547C8.73398 3.68116 8.47875 3.06499 8.47875 2.4225ZM6.66187 10.2956C6.66187 7.95261 8.55824 6.05625 10.9012 6.05625C13.2443 6.05625 15.1406 7.95261 15.1406 10.2956V10.5984C15.1406 11.1019 14.7356 11.5069 14.2322 11.5069H7.57031C7.06689 11.5069 6.66187 11.1019 6.66187 10.5984V10.2956ZM14.8378 3.02813C14.8378 2.46595 15.0611 1.9268 15.4587 1.52928C15.8562 1.13176 16.3953 0.908438 16.9575 0.908438C17.5197 0.908438 18.0588 1.13176 18.4563 1.52928C18.8539 1.9268 19.0772 2.46595 19.0772 3.02813C19.0772 3.5903 18.8539 4.12945 18.4563 4.52697C18.0588 4.92449 17.5197 5.14781 16.9575 5.14781C16.3953 5.14781 15.8562 4.92449 15.4587 4.52697C15.0611 4.12945 14.8378 3.5903 14.8378 3.02813ZM15.8674 6.82842C16.2118 6.71865 16.579 6.66188 16.9575 6.66188C18.9636 6.66188 20.5912 8.28949 20.5912 10.2956V10.7006C20.5912 11.1473 20.2279 11.5069 19.785 11.5069H16.8023C16.9045 11.223 16.9575 10.9164 16.9575 10.5984V10.2956C16.9575 9.00489 16.5563 7.80878 15.8674 6.82842ZM5.93512 6.82842C5.24623 7.81256 4.845 9.00489 4.845 10.2956V10.5984C4.845 10.9164 4.89799 11.223 5.00019 11.5069H2.01749C1.57462 11.5069 1.21125 11.1435 1.21125 10.7006V10.2956C1.21125 8.28949 2.83887 6.66188 4.845 6.66188C5.22352 6.66188 5.59068 6.71865 5.93512 6.82842ZM2.72531 3.02813C2.72531 2.46595 2.94864 1.9268 3.34615 1.52928C3.74367 1.13176 4.28282 0.908438 4.845 0.908438C5.40718 0.908438 5.94633 1.13176 6.34384 1.52928C6.74136 1.9268 6.96469 2.46595 6.96469 3.02813C6.96469 3.5903 6.74136 4.12945 6.34384 4.52697C5.94633 4.92449 5.40718 5.14781 4.845 5.14781C4.28282 5.14781 3.74367 4.92449 3.34615 4.52697C2.94864 4.12945 2.72531 3.5903 2.72531 3.02813ZM0 14.2322C0 13.7288 0.405012 13.3238 0.908437 13.3238H20.8941C21.3975 13.3238 21.8025 13.7288 21.8025 14.2322C21.8025 14.7356 21.3975 15.1406 20.8941 15.1406H0.908437C0.405012 15.1406 0 14.7356 0 14.2322Z" fill="#0B1739"/>
</svg>
