<svg width="49" height="35" viewBox="0 0 49 35" fill="none" xmlns="http://www.w3.org/2000/svg">
<path d="M13.6557 13.523C13.6557 12.8901 13.9096 12.2831 14.3616 11.8355C14.8135 11.388 15.4264 11.1366 16.0656 11.1366H17.6721V9.54563C17.6721 8.91271 17.926 8.30572 18.378 7.85818C18.8299 7.41065 19.4428 7.15922 20.082 7.15922C20.7211 7.15922 21.334 7.41065 21.786 7.85818C22.2379 8.30572 22.4918 8.91271 22.4918 9.54563V11.1366H24.0984C24.7375 11.1366 25.3504 11.388 25.8024 11.8355C26.2543 12.2831 26.5082 12.8901 26.5082 13.523C26.5082 14.1559 26.2543 14.7629 25.8024 15.2104C25.3504 15.658 24.7375 15.9094 24.0984 15.9094H22.4918V17.5003C22.4918 18.1332 22.2379 18.7402 21.786 19.1878C21.334 19.6353 20.7211 19.8867 20.082 19.8867C19.4428 19.8867 18.8299 19.6353 18.378 19.1878C17.926 18.7402 17.6721 18.1332 17.6721 17.5003V15.9094H16.0656C15.4264 15.9094 14.8135 15.658 14.3616 15.2104C13.9096 14.7629 13.6557 14.1559 13.6557 13.523ZM49 13.523V26.2505C49 27.3053 48.5768 28.317 47.8236 29.0629C47.0704 29.8088 46.0488 30.2278 44.9836 30.2278H42.9634C42.4649 31.6235 41.5419 32.8318 40.3212 33.6865C39.1006 34.5411 37.6424 35 36.1475 35C34.6526 35 33.1945 34.5411 31.9739 33.6865C30.7532 32.8318 29.8302 31.6235 29.3317 30.2278H20.4716C19.9731 31.6235 19.05 32.8318 17.8294 33.6865C16.6088 34.5411 15.1506 35 13.6557 35C12.1608 35 10.7027 34.5411 9.48206 33.6865C8.26143 32.8318 7.33835 31.6235 6.83992 30.2278H4.01639C2.95118 30.2278 1.92959 29.8088 1.17637 29.0629C0.423155 28.317 0 27.3053 0 26.2505V3.97734C0 2.92249 0.423155 1.91083 1.17637 1.16494C1.92959 0.41904 2.95118 0 4.01639 0H34.541C35.1801 0 35.7931 0.251424 36.245 0.698962C36.6969 1.1465 36.9508 1.75349 36.9508 2.38641V3.18188H42.2886C43.0919 3.17911 43.8774 3.41615 44.5426 3.86206C45.2079 4.30798 45.7219 4.94207 46.0178 5.68164L48.8293 12.642C48.9419 12.9223 48.9998 13.2213 49 13.523ZM36.9508 7.95469V11.1366H43.0316L41.7464 7.95469H36.9508ZM4.81967 25.455H6.83992C7.33835 24.0593 8.26143 22.851 9.48206 21.9964C10.7027 21.1417 12.1608 20.6828 13.6557 20.6828C15.1506 20.6828 16.6088 21.1417 17.8294 21.9964C19.05 22.851 19.9731 24.0593 20.4716 25.455H29.3317C29.8563 24.0014 30.8374 22.7524 32.1311 21.8913V4.77281H4.81967V25.455ZM16.0656 27.8414C16.0656 27.3694 15.9242 26.908 15.6594 26.5156C15.3946 26.1232 15.0183 25.8173 14.5779 25.6367C14.1376 25.456 13.6531 25.4088 13.1856 25.5009C12.7181 25.5929 12.2887 25.8202 11.9517 26.154C11.6147 26.4877 11.3852 26.9129 11.2922 27.3759C11.1992 27.8388 11.2469 28.3186 11.4293 28.7547C11.6117 29.1907 11.9206 29.5634 12.3169 29.8256C12.7132 30.0879 13.1791 30.2278 13.6557 30.2278C14.2949 30.2278 14.9078 29.9764 15.3597 29.5289C15.8117 29.0813 16.0656 28.4743 16.0656 27.8414ZM38.5574 27.8414C38.5574 27.3694 38.416 26.908 38.1512 26.5156C37.8864 26.1232 37.5101 25.8173 37.0697 25.6367C36.6294 25.456 36.1449 25.4088 35.6774 25.5009C35.2099 25.5929 34.7806 25.8202 34.4435 26.154C34.1065 26.4877 33.877 26.9129 33.784 27.3759C33.691 27.8388 33.7388 28.3186 33.9211 28.7547C34.1035 29.1907 34.4124 29.5634 34.8087 29.8256C35.205 30.0879 35.6709 30.2278 36.1475 30.2278C36.7867 30.2278 37.3996 29.9764 37.8516 29.5289C38.3035 29.0813 38.5574 28.4743 38.5574 27.8414ZM44.1803 25.455V15.9094H36.9508V20.7279C38.2994 20.8793 39.578 21.4026 40.641 22.2384C41.704 23.0741 42.5087 24.1886 42.9634 25.455H44.1803Z" fill="black"/>
</svg>
