<svg width="10" height="9" viewBox="0 0 10 9" fill="none" xmlns="http://www.w3.org/2000/svg">
<path d="M7.14694 5.66038H6.69525L6.53516 5.52144C7.11489 4.91633 7.4335 4.14376 7.43282 3.34477C7.43282 2.68324 7.21486 2.03656 6.80649 1.48652C6.39813 0.936472 5.8177 0.507764 5.13862 0.254607C4.45953 0.00144924 3.71229 -0.0647883 2.99137 0.0642703C2.27046 0.193329 1.60826 0.511887 1.08851 0.979661C0.568763 1.44744 0.21481 2.04342 0.0714114 2.69224C-0.071987 3.34106 0.00161026 4.01358 0.282896 4.62476C0.564183 5.23593 1.04052 5.75831 1.65168 6.12584C2.26284 6.49337 2.98137 6.68954 3.71641 6.68954C4.63694 6.68954 5.48313 6.38594 6.13493 5.88165L6.28931 6.02573V6.43225L9.14808 9L10 8.23328L7.14694 5.66038ZM3.71641 5.66038C2.29274 5.66038 1.14351 4.62607 1.14351 3.34477C1.14351 2.06347 2.29274 1.02916 3.71641 1.02916C5.14008 1.02916 6.28931 2.06347 6.28931 3.34477C6.28931 4.62607 5.14008 5.66038 3.71641 5.66038Z" fill="#6E6E6E"/>
</svg>
