<svg width="22" height="16" viewBox="0 0 22 16" fill="none" xmlns="http://www.w3.org/2000/svg">
<path d="M8.55546 2.44442C8.55546 1.79612 8.813 1.17437 9.27142 0.715953C9.72983 0.257536 10.3516 0 10.9999 0C11.6482 0 12.2699 0.257536 12.7283 0.715953C13.1868 1.17437 13.4443 1.79612 13.4443 2.44442C13.4443 3.09272 13.1868 3.71447 12.7283 4.17288C12.2699 4.6313 11.6482 4.88884 10.9999 4.88884C10.3516 4.88884 9.72983 4.6313 9.27142 4.17288C8.813 3.71447 8.55546 3.09272 8.55546 2.44442ZM6.72215 10.3888C6.72215 8.02457 8.63567 6.11105 10.9999 6.11105C13.3641 6.11105 15.2776 8.02457 15.2776 10.3888V10.6943C15.2776 11.2023 14.8689 11.611 14.361 11.611H7.63881C7.13083 11.611 6.72215 11.2023 6.72215 10.6943V10.3888ZM14.9721 3.05552C14.9721 2.48826 15.1974 1.94423 15.5985 1.54312C15.9996 1.142 16.5437 0.916657 17.1109 0.916657C17.6782 0.916657 18.2222 1.142 18.6233 1.54312C19.0244 1.94423 19.2498 2.48826 19.2498 3.05552C19.2498 3.62279 19.0244 4.16681 18.6233 4.56793C18.2222 4.96904 17.6782 5.19439 17.1109 5.19439C16.5437 5.19439 15.9996 4.96904 15.5985 4.56793C15.1974 4.16681 14.9721 3.62279 14.9721 3.05552ZM16.0109 6.8902C16.3585 6.77944 16.729 6.72215 17.1109 6.72215C19.1352 6.72215 20.7776 8.36449 20.7776 10.3888V10.7975C20.7776 11.2481 20.4109 11.611 19.964 11.611H16.9543C17.0575 11.3245 17.1109 11.0152 17.1109 10.6943V10.3888C17.1109 9.08636 16.7061 7.87943 16.0109 6.8902ZM5.98882 6.8902C5.29369 7.88325 4.88884 9.08636 4.88884 10.3888V10.6943C4.88884 11.0152 4.94231 11.3245 5.04543 11.611H2.03574C1.58887 11.611 1.22221 11.2443 1.22221 10.7975V10.3888C1.22221 8.36449 2.86455 6.72215 4.88884 6.72215C5.27078 6.72215 5.64126 6.77944 5.98882 6.8902ZM2.74997 3.05552C2.74997 2.48826 2.97531 1.94423 3.37643 1.54312C3.77754 1.142 4.32157 0.916657 4.88884 0.916657C5.4561 0.916657 6.00013 1.142 6.40124 1.54312C6.80236 1.94423 7.0277 2.48826 7.0277 3.05552C7.0277 3.62279 6.80236 4.16681 6.40124 4.56793C6.00013 4.96904 5.4561 5.19439 4.88884 5.19439C4.32157 5.19439 3.77754 4.96904 3.37643 4.56793C2.97531 4.16681 2.74997 3.62279 2.74997 3.05552ZM0 14.361C0 13.853 0.408676 13.4443 0.916657 13.4443H21.0831C21.5911 13.4443 21.9998 13.853 21.9998 14.361C21.9998 14.8689 21.5911 15.2776 21.0831 15.2776H0.916657C0.408676 15.2776 0 14.8689 0 14.361Z" fill="white"/>
</svg>
