<svg width="11" height="12" viewBox="0 0 11 12" fill="none" xmlns="http://www.w3.org/2000/svg">
<path d="M3.4375 1.3346C3.25516 1.3346 3.0803 1.40482 2.95136 1.52981C2.82243 1.6548 2.75 1.82433 2.75 2.00109C2.75 2.17785 2.82243 2.34737 2.95136 2.47236C3.0803 2.59736 3.25516 2.66757 3.4375 2.66757C3.61984 2.66757 3.7947 2.59736 3.92364 2.47236C4.05257 2.34737 4.125 2.17785 4.125 2.00109C4.125 1.82433 4.05257 1.6548 3.92364 1.52981C3.7947 1.40482 3.61984 1.3346 3.4375 1.3346ZM1.49188 1.3346C1.63391 0.944354 1.89732 0.606424 2.24579 0.367393C2.59425 0.128362 3.01062 0 3.4375 0C3.86438 0 4.28075 0.128362 4.62921 0.367393C4.97768 0.606424 5.24109 0.944354 5.38313 1.3346H10.3125C10.4948 1.3346 10.6697 1.40482 10.7986 1.52981C10.9276 1.6548 11 1.82433 11 2.00109C11 2.17785 10.9276 2.34737 10.7986 2.47236C10.6697 2.59736 10.4948 2.66757 10.3125 2.66757H5.38313C5.24109 3.05782 4.97768 3.39575 4.62921 3.63478C4.28075 3.87382 3.86438 4.00218 3.4375 4.00218C3.01062 4.00218 2.59425 3.87382 2.24579 3.63478C1.89732 3.39575 1.63391 3.05782 1.49188 2.66757H0.6875C0.505164 2.66757 0.330295 2.59736 0.201364 2.47236C0.072433 2.34737 0 2.17785 0 2.00109C0 1.82433 0.072433 1.6548 0.201364 1.52981C0.330295 1.40482 0.505164 1.3346 0.6875 1.3346H1.49188ZM7.5625 5.33352C7.38016 5.33352 7.2053 5.40373 7.07636 5.52872C6.94743 5.65371 6.875 5.82324 6.875 6C6.875 6.17676 6.94743 6.34629 7.07636 6.47128C7.2053 6.59627 7.38016 6.66649 7.5625 6.66649C7.74484 6.66649 7.9197 6.59627 8.04864 6.47128C8.17757 6.34629 8.25 6.17676 8.25 6C8.25 5.82324 8.17757 5.65371 8.04864 5.52872C7.9197 5.40373 7.74484 5.33352 7.5625 5.33352ZM5.61687 5.33352C5.75891 4.94327 6.02232 4.60534 6.37079 4.3663C6.71925 4.12727 7.13562 3.99891 7.5625 3.99891C7.98938 3.99891 8.40575 4.12727 8.75421 4.3663C9.10268 4.60534 9.36609 4.94327 9.50813 5.33352H10.3125C10.4948 5.33352 10.6697 5.40373 10.7986 5.52872C10.9276 5.65371 11 5.82324 11 6C11 6.17676 10.9276 6.34629 10.7986 6.47128C10.6697 6.59627 10.4948 6.66649 10.3125 6.66649H9.50813C9.36609 7.05673 9.10268 7.39466 8.75421 7.6337C8.40575 7.87273 7.98938 8.00109 7.5625 8.00109C7.13562 8.00109 6.71925 7.87273 6.37079 7.6337C6.02232 7.39466 5.75891 7.05673 5.61687 6.66649H0.6875C0.505164 6.66649 0.330295 6.59627 0.201364 6.47128C0.072433 6.34629 0 6.17676 0 6C0 5.82324 0.072433 5.65371 0.201364 5.52872C0.330295 5.40373 0.505164 5.33352 0.6875 5.33352H5.61687ZM3.4375 9.33243C3.25516 9.33243 3.0803 9.40264 2.95136 9.52763C2.82243 9.65262 2.75 9.82215 2.75 9.99891C2.75 10.1757 2.82243 10.3452 2.95136 10.4702C3.0803 10.5952 3.25516 10.6654 3.4375 10.6654C3.61984 10.6654 3.7947 10.5952 3.92364 10.4702C4.05257 10.3452 4.125 10.1757 4.125 9.99891C4.125 9.82215 4.05257 9.65262 3.92364 9.52763C3.7947 9.40264 3.61984 9.33243 3.4375 9.33243ZM1.49188 9.33243C1.63391 8.94218 1.89732 8.60425 2.24579 8.36522C2.59425 8.12618 3.01062 7.99782 3.4375 7.99782C3.86438 7.99782 4.28075 8.12618 4.62921 8.36522C4.97768 8.60425 5.24109 8.94218 5.38313 9.33243H10.3125C10.4948 9.33243 10.6697 9.40264 10.7986 9.52763C10.9276 9.65262 11 9.82215 11 9.99891C11 10.1757 10.9276 10.3452 10.7986 10.4702C10.6697 10.5952 10.4948 10.6654 10.3125 10.6654H5.38313C5.24109 11.0556 4.97768 11.3936 4.62921 11.6326C4.28075 11.8716 3.86438 12 3.4375 12C3.01062 12 2.59425 11.8716 2.24579 11.6326C1.89732 11.3936 1.63391 11.0556 1.49188 10.6654H0.6875C0.505164 10.6654 0.330295 10.5952 0.201364 10.4702C0.072433 10.3452 0 10.1757 0 9.99891C0 9.82215 0.072433 9.65262 0.201364 9.52763C0.330295 9.40264 0.505164 9.33243 0.6875 9.33243H1.49188Z" fill="white"/>
</svg>
