<svg width="17" height="25" viewBox="0 0 17 25" fill="none" xmlns="http://www.w3.org/2000/svg">
<path d="M8.08936 0C9.76492 0 11.1175 1.675 11.1175 3.75C11.1175 5.825 9.76492 7.5 8.08936 7.5C6.4138 7.5 5.06123 5.825 5.06123 3.75C5.06123 1.675 6.4138 0 8.08936 0ZM16.1644 20L14.1456 13.2C13.7923 11.9625 13.4794 10.8875 12.1269 10C10.744 9.125 9.73464 8.75 8.08936 8.75C6.46427 8.75 5.45489 9.125 4.05186 10C2.71948 10.8875 2.40658 11.9625 2.03311 13.2L0.0143594 20C-0.217797 21.4125 2.41667 23.05 4.18308 23.9875C5.40442 24.65 6.71661 25 8.08936 25C9.4823 25 10.7844 24.65 12.0158 23.9875C13.7822 23.05 16.4167 21.4125 16.1644 20ZM11.5414 19.375L8.08936 23.75L4.6373 19.375C4.27392 18.9 4.05186 18.2625 4.05186 17.5625C4.05186 16.15 4.9603 15 6.07061 15C6.62577 15 7.14055 15.2875 7.50392 15.7625L8.08936 16.5L8.6748 15.75C9.03817 15.2875 9.55295 15 10.1081 15C11.2285 15 12.1269 16.15 12.1269 17.5625C12.1269 18.2625 11.9048 18.9125 11.5414 19.375Z" fill="white"/>
</svg>
