<svg width="17" height="19" viewBox="0 0 17 19" fill="none" xmlns="http://www.w3.org/2000/svg">
<path d="M5.86542 19L5.54403 15.96C5.36994 15.8808 5.20603 15.7858 5.0523 15.675C4.89857 15.5642 4.74778 15.4454 4.59994 15.3187L2.20958 16.5063L0 11.9937L2.06897 10.1412C2.05558 10.0304 2.04888 9.9237 2.04888 9.8211V9.17985C2.04888 9.07662 2.05558 8.96958 2.06897 8.85875L0 7.00625L2.20958 2.49375L4.59994 3.68125C4.74724 3.55458 4.90124 3.43583 5.06194 3.325C5.22264 3.21417 5.38333 3.11917 5.54403 3.04L5.86542 0H10.2846L10.606 3.04C10.7801 3.11917 10.9442 3.21417 11.0985 3.325C11.2528 3.43583 11.4033 3.55458 11.5501 3.68125L13.9404 2.49375L16.15 7.00625L14.081 8.85875C14.0944 8.96958 14.1011 9.07662 14.1011 9.17985V9.82015C14.1011 9.92338 14.0877 10.0304 14.0609 10.1412L16.1299 11.9937L13.9203 16.5063L11.5501 15.3187C11.4028 15.4454 11.2488 15.5642 11.0881 15.675C10.9274 15.7858 10.7667 15.8808 10.606 15.96L10.2846 19H5.86542ZM8.11518 12.825C8.89188 12.825 9.55475 12.5004 10.1038 11.8513C10.6528 11.2021 10.9274 10.4183 10.9274 9.5C10.9274 8.58167 10.6528 7.79792 10.1038 7.14875C9.55475 6.49958 8.89188 6.175 8.11518 6.175C7.32508 6.175 6.65873 6.49958 6.11611 7.14875C5.57349 7.79792 5.30245 8.58167 5.30299 9.5C5.30352 10.4183 5.57483 11.2021 6.11691 11.8513C6.659 12.5004 7.32508 12.825 8.11518 12.825Z" fill="white"/>
</svg>
